<?xml version="1.0" encoding="UTF-8"?> <svg xmlns="http://www.w3.org/2000/svg" id="Layer_1" data-name="Layer 1" width="28" height="28" viewBox="0 0 28 28"><defs><style>.cls-1{fill:#fff;}</style></defs><title>networking-icon</title><path class="cls-1" d="M30,30H22V22h8Zm-6-2h4V24H24Z" transform="translate(-2 -2)"></path><path class="cls-1" d="M20,27H8A6,6,0,0,1,8,15h2v2H8a4,4,0,0,0,0,8H20Z" transform="translate(-2 -2)"></path><path class="cls-1" d="M20,20H12V12h8Zm-6-2h4V14H14Z" transform="translate(-2 -2)"></path><path class="cls-1" d="M24,17H22V15h2a4,4,0,0,0,0-8H12V5H24a6,6,0,0,1,0,12Z" transform="translate(-2 -2)"></path><path class="cls-1" d="M10,10H2V2h8ZM4,8H8V4H4Z" transform="translate(-2 -2)"></path></svg> 